<mxfile host="Electron" modified="2023-04-10T20:54:16.994Z" agent="Mozilla/5.0 (Windows NT 10.0; Win64; x64) AppleWebKit/537.36 (KHTML, like Gecko) draw.io/21.1.2 Chrome/106.0.5249.199 Electron/21.4.3 Safari/537.36" etag="QW-REbTu_krOqv3xvruM" version="21.1.2" type="device">
  <diagram id="mvABOblVwE0xF03FDS1o" name="Page-1">
    <mxGraphModel dx="2084" dy="1358" grid="1" gridSize="10" guides="1" tooltips="1" connect="1" arrows="1" fold="1" page="1" pageScale="1" pageWidth="1600" pageHeight="1600" math="0" shadow="0">
      <root>
        <mxCell id="0" />
        <mxCell id="1" parent="0" />
        <mxCell id="PVpo5jEVWYjkOMs7Octi-23" style="edgeStyle=orthogonalEdgeStyle;rounded=0;orthogonalLoop=1;jettySize=auto;html=1;entryX=0;entryY=0.25;entryDx=0;entryDy=0;endSize=20;" edge="1" parent="1" source="AtNynxt9UDLsKCmmYmUF-10" target="AtNynxt9UDLsKCmmYmUF-43">
          <mxGeometry relative="1" as="geometry" />
        </mxCell>
        <mxCell id="PVpo5jEVWYjkOMs7Octi-12" style="edgeStyle=orthogonalEdgeStyle;rounded=1;orthogonalLoop=1;jettySize=auto;html=1;endSize=20;" edge="1" parent="1" source="AtNynxt9UDLsKCmmYmUF-41">
          <mxGeometry relative="1" as="geometry">
            <mxPoint x="440" y="330" as="targetPoint" />
            <Array as="points">
              <mxPoint x="960" y="708" />
              <mxPoint x="960" y="540" />
              <mxPoint x="638" y="540" />
              <mxPoint x="638" y="360" />
              <mxPoint x="440" y="360" />
            </Array>
          </mxGeometry>
        </mxCell>
        <mxCell id="AtNynxt9UDLsKCmmYmUF-41" value="&lt;font style=&quot;font-size: 25px;&quot;&gt;State Estimation&lt;br&gt;&lt;br&gt;&lt;br&gt;&lt;br&gt;&lt;br&gt;&lt;br&gt;&lt;br&gt;&lt;/font&gt;" style="rounded=1;whiteSpace=wrap;html=1;" parent="1" vertex="1">
          <mxGeometry x="495" y="588" width="285" height="240" as="geometry" />
        </mxCell>
        <mxCell id="AtNynxt9UDLsKCmmYmUF-22" style="edgeStyle=orthogonalEdgeStyle;rounded=1;orthogonalLoop=1;jettySize=auto;html=1;fontFamily=Helvetica;fontSize=25;fontColor=#000000;endSize=20;labelBackgroundColor=none;entryX=0;entryY=0.5;entryDx=0;entryDy=0;exitX=0.5;exitY=0;exitDx=0;exitDy=0;" parent="1" source="AtNynxt9UDLsKCmmYmUF-10" target="AtNynxt9UDLsKCmmYmUF-13" edge="1">
          <mxGeometry relative="1" as="geometry">
            <mxPoint x="270" y="988" as="targetPoint" />
            <Array as="points">
              <mxPoint x="110" y="970" />
            </Array>
          </mxGeometry>
        </mxCell>
        <mxCell id="AtNynxt9UDLsKCmmYmUF-46" style="edgeStyle=orthogonalEdgeStyle;rounded=1;orthogonalLoop=1;jettySize=auto;html=1;entryX=0;entryY=0.5;entryDx=0;entryDy=0;labelBackgroundColor=none;fontFamily=Helvetica;fontSize=25;fontColor=#000000;endSize=20;" parent="1" source="AtNynxt9UDLsKCmmYmUF-10" target="AtNynxt9UDLsKCmmYmUF-42" edge="1">
          <mxGeometry relative="1" as="geometry">
            <Array as="points">
              <mxPoint x="110" y="810" />
              <mxPoint x="310" y="810" />
              <mxPoint x="310" y="743" />
            </Array>
          </mxGeometry>
        </mxCell>
        <mxCell id="AtNynxt9UDLsKCmmYmUF-11" value="&lt;span style=&quot;color: rgb(0, 0, 0); font-family: Helvetica; font-size: 25px; font-style: normal; font-variant-ligatures: normal; font-variant-caps: normal; font-weight: 400; letter-spacing: normal; orphans: 2; text-indent: 0px; text-transform: none; widows: 2; word-spacing: 0px; -webkit-text-stroke-width: 0px; text-decoration-thickness: initial; text-decoration-style: initial; text-decoration-color: initial; text-align: center; float: none; display: inline !important;&quot;&gt;Range&lt;/span&gt;&lt;br style=&quot;color: rgb(0, 0, 0); font-family: Helvetica; font-size: 25px; font-style: normal; font-variant-ligatures: normal; font-variant-caps: normal; font-weight: 400; letter-spacing: normal; orphans: 2; text-indent: 0px; text-transform: none; widows: 2; word-spacing: 0px; -webkit-text-stroke-width: 0px; text-decoration-thickness: initial; text-decoration-style: initial; text-decoration-color: initial; text-align: center;&quot;&gt;&lt;font style=&quot;font-family: Helvetica; font-size: 25px; font-style: normal; font-variant-ligatures: normal; font-variant-caps: normal; font-weight: 400; letter-spacing: normal; orphans: 2; text-indent: 0px; text-transform: none; widows: 2; word-spacing: 0px; -webkit-text-stroke-width: 0px; text-decoration-thickness: initial; text-decoration-style: initial; text-decoration-color: initial; text-align: center;&quot; color=&quot;#0000ff&quot;&gt;/pidrone/range&lt;/font&gt;" style="endArrow=classic;html=1;rounded=1;fontSize=25;endSize=20;exitX=0.5;exitY=0;exitDx=0;exitDy=0;entryX=0.75;entryY=1;entryDx=0;entryDy=0;labelBackgroundColor=default;" parent="1" source="AtNynxt9UDLsKCmmYmUF-10" target="AtNynxt9UDLsKCmmYmUF-12" edge="1">
          <mxGeometry x="-0.9218" width="50" height="50" relative="1" as="geometry">
            <mxPoint x="870" y="1658" as="sourcePoint" />
            <mxPoint x="690" y="938" as="targetPoint" />
            <mxPoint as="offset" />
            <Array as="points">
              <mxPoint x="110" y="970" />
              <mxPoint x="250" y="970" />
              <mxPoint x="250" y="1028" />
              <mxPoint x="250" y="1340" />
              <mxPoint x="930" y="1340" />
            </Array>
          </mxGeometry>
        </mxCell>
        <mxCell id="AtNynxt9UDLsKCmmYmUF-1" value="State" style="ellipse;whiteSpace=wrap;html=1;aspect=fixed;fontSize=25;" parent="1" vertex="1">
          <mxGeometry x="660" y="1426" width="170" height="170" as="geometry" />
        </mxCell>
        <mxCell id="AtNynxt9UDLsKCmmYmUF-2" value="&lt;font style=&quot;font-size: 25px;&quot;&gt;ROS Node&lt;/font&gt;" style="rounded=1;whiteSpace=wrap;html=1;" parent="1" vertex="1">
          <mxGeometry x="400" y="1486" width="200" height="60" as="geometry" />
        </mxCell>
        <mxCell id="AtNynxt9UDLsKCmmYmUF-3" value="&lt;font style=&quot;font-size: 25px;&quot;&gt;Hardware Component&lt;/font&gt;" style="rounded=0;whiteSpace=wrap;html=1;" parent="1" vertex="1">
          <mxGeometry x="140" y="1476" width="170" height="80" as="geometry" />
        </mxCell>
        <mxCell id="AtNynxt9UDLsKCmmYmUF-4" value="ROS Message Type&lt;br&gt;&lt;font color=&quot;#0000ff&quot;&gt;ROS Topic&lt;/font&gt;" style="endArrow=classic;html=1;rounded=0;fontSize=25;endSize=20;labelBackgroundColor=none;" parent="1" edge="1">
          <mxGeometry width="50" height="50" relative="1" as="geometry">
            <mxPoint x="870" y="1516" as="sourcePoint" />
            <mxPoint x="1180" y="1516" as="targetPoint" />
            <mxPoint as="offset" />
          </mxGeometry>
        </mxCell>
        <mxCell id="AtNynxt9UDLsKCmmYmUF-5" value="&lt;h1&gt;&lt;span style=&quot;background-color: initial;&quot;&gt;&lt;font color=&quot;#000000&quot;&gt;Key&lt;/font&gt;&lt;/span&gt;&lt;br&gt;&lt;/h1&gt;" style="text;html=1;strokeColor=none;fillColor=none;spacing=5;spacingTop=-20;whiteSpace=wrap;overflow=hidden;rounded=0;fontFamily=Helvetica;fontSize=25;fontColor=#0000FF;" parent="1" vertex="1">
          <mxGeometry x="750" y="1340" width="100" height="120" as="geometry" />
        </mxCell>
        <mxCell id="AtNynxt9UDLsKCmmYmUF-6" value="Interface with Hardware" style="endArrow=classic;html=1;rounded=1;fontSize=25;endSize=20;dashed=1;labelBackgroundColor=none;" parent="1" edge="1">
          <mxGeometry x="-0.0556" y="20" width="50" height="50" relative="1" as="geometry">
            <mxPoint x="1210" y="1516" as="sourcePoint" />
            <mxPoint x="1570" y="1516" as="targetPoint" />
            <mxPoint as="offset" />
          </mxGeometry>
        </mxCell>
        <mxCell id="AtNynxt9UDLsKCmmYmUF-8" value="&lt;font style=&quot;font-size: 25px;&quot;&gt;TOF Sensor&lt;/font&gt;" style="rounded=0;whiteSpace=wrap;html=1;" parent="1" vertex="1">
          <mxGeometry x="25" y="1278" width="170" height="80" as="geometry" />
        </mxCell>
        <mxCell id="AtNynxt9UDLsKCmmYmUF-9" value="I2C" style="endArrow=classic;html=1;rounded=1;fontSize=25;endSize=20;dashed=1;exitX=0.5;exitY=0;exitDx=0;exitDy=0;labelBackgroundColor=none;entryX=0.5;entryY=1;entryDx=0;entryDy=0;" parent="1" source="AtNynxt9UDLsKCmmYmUF-8" target="AtNynxt9UDLsKCmmYmUF-10" edge="1">
          <mxGeometry x="-0.1111" width="50" height="50" relative="1" as="geometry">
            <mxPoint x="775" y="1338" as="sourcePoint" />
            <mxPoint x="110" y="1228" as="targetPoint" />
            <mxPoint as="offset" />
            <Array as="points" />
          </mxGeometry>
        </mxCell>
        <mxCell id="AtNynxt9UDLsKCmmYmUF-10" value="&lt;font style=&quot;font-size: 25px;&quot;&gt;TOF Node&lt;/font&gt;" style="rounded=1;whiteSpace=wrap;html=1;" parent="1" vertex="1">
          <mxGeometry x="10" y="1128" width="200" height="60" as="geometry" />
        </mxCell>
        <mxCell id="AtNynxt9UDLsKCmmYmUF-12" value="&lt;font style=&quot;font-size: 25px;&quot;&gt;Rigid Transform&lt;/font&gt;" style="rounded=1;whiteSpace=wrap;html=1;" parent="1" vertex="1">
          <mxGeometry x="780" y="1158" width="200" height="60" as="geometry" />
        </mxCell>
        <mxCell id="AtNynxt9UDLsKCmmYmUF-13" value="&lt;font style=&quot;font-size: 25px;&quot;&gt;Optical Flow&lt;/font&gt;" style="rounded=1;whiteSpace=wrap;html=1;" parent="1" vertex="1">
          <mxGeometry x="295" y="940" width="200" height="60" as="geometry" />
        </mxCell>
        <mxCell id="AtNynxt9UDLsKCmmYmUF-34" value="&lt;font style=&quot;font-size: 25px;&quot;&gt;Camera&lt;/font&gt;" style="rounded=0;whiteSpace=wrap;html=1;" parent="1" vertex="1">
          <mxGeometry x="370" y="1208" width="150" height="50" as="geometry" />
        </mxCell>
        <mxCell id="AtNynxt9UDLsKCmmYmUF-35" value="" style="endArrow=classic;html=1;rounded=1;fontSize=25;endSize=20;dashed=1;exitX=0.5;exitY=0;exitDx=0;exitDy=0;entryX=0.5;entryY=1;entryDx=0;entryDy=0;" parent="1" source="AtNynxt9UDLsKCmmYmUF-34" target="AtNynxt9UDLsKCmmYmUF-36" edge="1">
          <mxGeometry x="-0.2034" y="16" width="50" height="50" relative="1" as="geometry">
            <mxPoint x="1050" y="1338" as="sourcePoint" />
            <mxPoint x="315" y="1128" as="targetPoint" />
            <mxPoint x="1" as="offset" />
          </mxGeometry>
        </mxCell>
        <mxCell id="AtNynxt9UDLsKCmmYmUF-37" value="MotionVectors&lt;br&gt;&lt;font color=&quot;#0000ff&quot;&gt;/raspicam_node/motion_vectors&lt;/font&gt;" style="edgeStyle=orthogonalEdgeStyle;rounded=1;orthogonalLoop=1;jettySize=auto;html=1;fontFamily=Helvetica;fontSize=25;fontColor=#000000;endSize=20;labelBackgroundColor=default;exitX=0.5;exitY=0;exitDx=0;exitDy=0;entryX=0.75;entryY=1;entryDx=0;entryDy=0;" parent="1" source="AtNynxt9UDLsKCmmYmUF-36" target="AtNynxt9UDLsKCmmYmUF-13" edge="1">
          <mxGeometry x="0.0476" relative="1" as="geometry">
            <mxPoint x="540" y="1058" as="targetPoint" />
            <Array as="points">
              <mxPoint x="445" y="1118" />
            </Array>
            <mxPoint as="offset" />
          </mxGeometry>
        </mxCell>
        <mxCell id="AtNynxt9UDLsKCmmYmUF-36" value="&lt;span style=&quot;font-size: 25px;&quot;&gt;Vision&lt;/span&gt;" style="rounded=1;whiteSpace=wrap;html=1;" parent="1" vertex="1">
          <mxGeometry x="340" y="1108" width="210" height="60" as="geometry" />
        </mxCell>
        <mxCell id="PVpo5jEVWYjkOMs7Octi-9" style="edgeStyle=orthogonalEdgeStyle;rounded=1;orthogonalLoop=1;jettySize=auto;html=1;entryX=0.5;entryY=0;entryDx=0;entryDy=0;endSize=20;" edge="1" parent="1" source="AtNynxt9UDLsKCmmYmUF-38" target="PVpo5jEVWYjkOMs7Octi-1">
          <mxGeometry relative="1" as="geometry">
            <Array as="points">
              <mxPoint x="1040" y="430" />
              <mxPoint x="1040" y="180" />
              <mxPoint x="920" y="180" />
            </Array>
          </mxGeometry>
        </mxCell>
        <mxCell id="PVpo5jEVWYjkOMs7Octi-19" style="edgeStyle=orthogonalEdgeStyle;rounded=1;orthogonalLoop=1;jettySize=auto;html=1;exitX=0.128;exitY=0.026;exitDx=0;exitDy=0;fontSize=19;strokeWidth=1;endSize=20;entryX=0.9;entryY=1.033;entryDx=0;entryDy=0;entryPerimeter=0;exitPerimeter=0;" edge="1" parent="1" source="AtNynxt9UDLsKCmmYmUF-38" target="PVpo5jEVWYjkOMs7Octi-1">
          <mxGeometry relative="1" as="geometry">
            <mxPoint x="1190" y="800" as="targetPoint" />
            <Array as="points">
              <mxPoint x="1405" y="401" />
              <mxPoint x="1405" y="610" />
              <mxPoint x="1000" y="610" />
            </Array>
          </mxGeometry>
        </mxCell>
        <mxCell id="PVpo5jEVWYjkOMs7Octi-18" value="Bool&lt;br&gt;&lt;font color=&quot;#0000ff&quot;&gt;/pidrone/position_control&lt;/font&gt;" style="edgeStyle=orthogonalEdgeStyle;rounded=1;orthogonalLoop=1;jettySize=auto;html=1;exitX=0.5;exitY=1;exitDx=0;exitDy=0;endSize=20;fontSize=25;entryX=1;entryY=0.75;entryDx=0;entryDy=0;" edge="1" parent="1" source="AtNynxt9UDLsKCmmYmUF-38" target="AtNynxt9UDLsKCmmYmUF-12">
          <mxGeometry x="-0.863" relative="1" as="geometry">
            <mxPoint x="1404.8888888888887" y="830" as="targetPoint" />
            <mxPoint as="offset" />
          </mxGeometry>
        </mxCell>
        <mxCell id="AtNynxt9UDLsKCmmYmUF-38" value="&lt;font style=&quot;font-size: 25px;&quot;&gt;rosbridge&lt;br&gt;&lt;/font&gt;" style="rounded=1;whiteSpace=wrap;html=1;" parent="1" vertex="1">
          <mxGeometry x="1305" y="400" width="200" height="60" as="geometry" />
        </mxCell>
        <mxCell id="AtNynxt9UDLsKCmmYmUF-42" value="&lt;font style=&quot;font-size: 25px;&quot;&gt;state estimator&lt;br&gt;ema or ukf&lt;br&gt;&lt;/font&gt;" style="rounded=1;whiteSpace=wrap;html=1;" parent="1" vertex="1">
          <mxGeometry x="555" y="688" width="165" height="110" as="geometry" />
        </mxCell>
        <mxCell id="AtNynxt9UDLsKCmmYmUF-32" value="&lt;font color=&quot;#000000&quot;&gt;TwistStamped&lt;/font&gt;&lt;br&gt;/pidrone/picamera/twist" style="edgeStyle=orthogonalEdgeStyle;rounded=1;orthogonalLoop=1;jettySize=auto;html=1;fontFamily=Helvetica;fontSize=25;fontColor=#0000FF;endSize=20;exitX=0.5;exitY=0;exitDx=0;exitDy=0;entryX=0;entryY=0.75;entryDx=0;entryDy=0;labelBackgroundColor=default;" parent="1" source="AtNynxt9UDLsKCmmYmUF-13" target="AtNynxt9UDLsKCmmYmUF-42" edge="1">
          <mxGeometry x="-0.5144" relative="1" as="geometry">
            <mxPoint x="930" y="988" as="targetPoint" />
            <Array as="points">
              <mxPoint x="395" y="771" />
            </Array>
            <mxPoint as="offset" />
          </mxGeometry>
        </mxCell>
        <mxCell id="AtNynxt9UDLsKCmmYmUF-24" style="edgeStyle=orthogonalEdgeStyle;rounded=1;orthogonalLoop=1;jettySize=auto;html=1;fontFamily=Helvetica;fontSize=25;fontColor=#000000;endSize=20;exitX=1;exitY=0.5;exitDx=0;exitDy=0;entryX=1;entryY=0.25;entryDx=0;entryDy=0;" parent="1" target="AtNynxt9UDLsKCmmYmUF-12" edge="1" source="AtNynxt9UDLsKCmmYmUF-41">
          <mxGeometry relative="1" as="geometry">
            <mxPoint x="679" y="830" as="sourcePoint" />
            <Array as="points">
              <mxPoint x="1040" y="708" />
              <mxPoint x="1040" y="1173" />
            </Array>
            <mxPoint x="980" y="1190" as="targetPoint" />
          </mxGeometry>
        </mxCell>
        <mxCell id="AtNynxt9UDLsKCmmYmUF-25" value="State&lt;br style=&quot;&quot;&gt;&lt;font style=&quot;&quot; color=&quot;#0000ff&quot;&gt;/pidrone/state&lt;br&gt;&lt;/font&gt;" style="edgeLabel;html=1;align=center;verticalAlign=middle;resizable=0;points=[];fontSize=25;fontFamily=Helvetica;fontColor=#000000;labelBackgroundColor=none;" parent="AtNynxt9UDLsKCmmYmUF-24" vertex="1" connectable="0">
          <mxGeometry x="-0.2516" relative="1" as="geometry">
            <mxPoint x="-170" y="-35" as="offset" />
          </mxGeometry>
        </mxCell>
        <mxCell id="AtNynxt9UDLsKCmmYmUF-51" value="Roll Pitch Throttle Yaw" style="edgeStyle=orthogonalEdgeStyle;rounded=1;orthogonalLoop=1;jettySize=auto;html=1;entryX=0.75;entryY=0;entryDx=0;entryDy=0;labelBackgroundColor=default;fontFamily=Helvetica;fontSize=25;fontColor=#000000;endSize=20;dashed=1;" parent="1" source="AtNynxt9UDLsKCmmYmUF-43" target="AtNynxt9UDLsKCmmYmUF-48" edge="1">
          <mxGeometry x="0.2857" y="75" relative="1" as="geometry">
            <Array as="points">
              <mxPoint x="407.57000000000005" y="368" />
              <mxPoint x="407.57000000000005" y="368" />
            </Array>
            <mxPoint as="offset" />
          </mxGeometry>
        </mxCell>
        <mxCell id="AtNynxt9UDLsKCmmYmUF-65" value="&lt;font style=&quot;font-size: 25px;&quot;&gt;Imu&lt;br&gt;&lt;font color=&quot;#0000ff&quot;&gt;/pidrone/imu&lt;/font&gt;&lt;br&gt;&lt;/font&gt;" style="edgeStyle=orthogonalEdgeStyle;rounded=1;orthogonalLoop=1;jettySize=auto;html=1;labelBackgroundColor=none;fontFamily=Helvetica;fontSize=25;fontColor=#000000;startSize=0;endSize=20;strokeWidth=1;" parent="1" source="AtNynxt9UDLsKCmmYmUF-43" target="AtNynxt9UDLsKCmmYmUF-42" edge="1">
          <mxGeometry x="0.3505" relative="1" as="geometry">
            <Array as="points">
              <mxPoint x="130" y="258" />
              <mxPoint x="130" y="708" />
            </Array>
            <mxPoint x="-1" as="offset" />
            <mxPoint x="560" y="710" as="targetPoint" />
          </mxGeometry>
        </mxCell>
        <mxCell id="PVpo5jEVWYjkOMs7Octi-20" value="&lt;br&gt;&lt;span style=&quot;color: rgb(0, 0, 0); font-family: Helvetica; font-size: 25px; font-style: normal; font-variant-ligatures: normal; font-variant-caps: normal; font-weight: 400; letter-spacing: normal; orphans: 2; text-align: center; text-indent: 0px; text-transform: none; widows: 2; word-spacing: 0px; -webkit-text-stroke-width: 0px; text-decoration-thickness: initial; text-decoration-style: initial; text-decoration-color: initial; float: none; display: inline !important;&quot;&gt;Mode&lt;/span&gt;&lt;br style=&quot;border-color: var(--border-color); color: rgb(0, 0, 0); font-family: Helvetica; font-size: 25px; font-style: normal; font-variant-ligatures: normal; font-variant-caps: normal; font-weight: 400; letter-spacing: normal; orphans: 2; text-align: center; text-indent: 0px; text-transform: none; widows: 2; word-spacing: 0px; -webkit-text-stroke-width: 0px; text-decoration-thickness: initial; text-decoration-style: initial; text-decoration-color: initial;&quot;&gt;&lt;font style=&quot;border-color: var(--border-color); font-family: Helvetica; font-size: 25px; font-style: normal; font-variant-ligatures: normal; font-variant-caps: normal; font-weight: 400; letter-spacing: normal; orphans: 2; text-align: center; text-indent: 0px; text-transform: none; widows: 2; word-spacing: 0px; -webkit-text-stroke-width: 0px; text-decoration-thickness: initial; text-decoration-style: initial; text-decoration-color: initial;&quot; color=&quot;#0000ff&quot;&gt;/pidrone/mode&lt;/font&gt;&lt;br&gt;" style="edgeStyle=orthogonalEdgeStyle;rounded=1;orthogonalLoop=1;jettySize=auto;html=1;exitX=1.001;exitY=0.365;exitDx=0;exitDy=0;endSize=20;labelBackgroundColor=none;exitPerimeter=0;" edge="1" parent="1" source="AtNynxt9UDLsKCmmYmUF-43" target="PVpo5jEVWYjkOMs7Octi-1">
          <mxGeometry x="-0.2253" y="10" relative="1" as="geometry">
            <Array as="points">
              <mxPoint x="490" y="239" />
              <mxPoint x="490" y="239" />
            </Array>
            <mxPoint as="offset" />
          </mxGeometry>
        </mxCell>
        <mxCell id="AtNynxt9UDLsKCmmYmUF-43" value="&lt;span style=&quot;font-size: 25px;&quot;&gt;Flight Controller Node&lt;br&gt;&lt;br&gt;&lt;br&gt;&lt;br&gt;&lt;/span&gt;" style="rounded=1;whiteSpace=wrap;html=1;" parent="1" vertex="1">
          <mxGeometry x="192.57" y="188" width="290" height="140" as="geometry" />
        </mxCell>
        <mxCell id="AtNynxt9UDLsKCmmYmUF-48" value="&lt;font style=&quot;font-size: 25px;&quot;&gt;Flight Controller&lt;/font&gt;" style="rounded=0;whiteSpace=wrap;html=1;" parent="1" vertex="1">
          <mxGeometry x="302.57000000000005" y="468" width="140" height="60" as="geometry" />
        </mxCell>
        <mxCell id="AtNynxt9UDLsKCmmYmUF-49" value="IMU" style="endArrow=classic;html=1;rounded=1;fontSize=25;endSize=20;dashed=1;labelBackgroundColor=default;exitX=0;exitY=0;exitDx=0;exitDy=0;" parent="1" source="AtNynxt9UDLsKCmmYmUF-48" edge="1">
          <mxGeometry x="-0.1714" y="13" width="50" height="50" relative="1" as="geometry">
            <mxPoint x="402.57000000000005" y="468" as="sourcePoint" />
            <mxPoint x="302.57000000000005" y="328" as="targetPoint" />
            <mxPoint as="offset" />
          </mxGeometry>
        </mxCell>
        <mxCell id="AtNynxt9UDLsKCmmYmUF-50" value="Battery" style="endArrow=classic;html=1;rounded=1;fontSize=25;endSize=20;dashed=1;labelBackgroundColor=default;exitX=0.25;exitY=0;exitDx=0;exitDy=0;entryX=0.5;entryY=1;entryDx=0;entryDy=0;" parent="1" source="AtNynxt9UDLsKCmmYmUF-48" target="AtNynxt9UDLsKCmmYmUF-43" edge="1">
          <mxGeometry x="0.4286" y="-15" width="50" height="50" relative="1" as="geometry">
            <mxPoint x="312.57000000000005" y="478" as="sourcePoint" />
            <mxPoint x="312.57000000000005" y="338.0000000000001" as="targetPoint" />
            <mxPoint as="offset" />
          </mxGeometry>
        </mxCell>
        <mxCell id="AtNynxt9UDLsKCmmYmUF-54" value="" style="endArrow=none;html=1;rounded=1;labelBackgroundColor=none;fontFamily=Helvetica;fontSize=25;fontColor=#000000;endSize=20;startSize=0;strokeWidth=2;" parent="1" edge="1">
          <mxGeometry width="50" height="50" relative="1" as="geometry">
            <mxPoint x="10" y="1366" as="sourcePoint" />
            <mxPoint x="1590" y="1366" as="targetPoint" />
          </mxGeometry>
        </mxCell>
        <mxCell id="AtNynxt9UDLsKCmmYmUF-57" value="CompressedImage&lt;br&gt;&lt;font color=&quot;#0000ff&quot;&gt;/raspicam_node/image/compressed&lt;/font&gt;" style="edgeStyle=orthogonalEdgeStyle;rounded=1;orthogonalLoop=1;jettySize=auto;html=1;fontFamily=Helvetica;fontSize=25;fontColor=#000000;endSize=20;labelBackgroundColor=none;exitX=1;exitY=0.75;exitDx=0;exitDy=0;entryX=0.5;entryY=1;entryDx=0;entryDy=0;" parent="1" source="AtNynxt9UDLsKCmmYmUF-36" target="AtNynxt9UDLsKCmmYmUF-12" edge="1">
          <mxGeometry x="0.0476" relative="1" as="geometry">
            <mxPoint x="635" y="1038" as="targetPoint" />
            <mxPoint x="635" y="1128" as="sourcePoint" />
            <Array as="points">
              <mxPoint x="580" y="1153" />
              <mxPoint x="580" y="1290" />
              <mxPoint x="880" y="1290" />
            </Array>
            <mxPoint as="offset" />
          </mxGeometry>
        </mxCell>
        <mxCell id="AtNynxt9UDLsKCmmYmUF-62" style="edgeStyle=orthogonalEdgeStyle;rounded=1;orthogonalLoop=1;jettySize=auto;html=1;entryX=0;entryY=0.5;entryDx=0;entryDy=0;labelBackgroundColor=default;fontFamily=Helvetica;fontSize=14;fontColor=#000000;startSize=0;endSize=12;strokeWidth=1;" parent="1" source="AtNynxt9UDLsKCmmYmUF-58" target="AtNynxt9UDLsKCmmYmUF-60" edge="1">
          <mxGeometry relative="1" as="geometry" />
        </mxCell>
        <mxCell id="AtNynxt9UDLsKCmmYmUF-58" value="&lt;font style=&quot;font-size: 18px;&quot;&gt;Armed&lt;/font&gt;" style="ellipse;whiteSpace=wrap;html=1;aspect=fixed;labelBackgroundColor=none;fontFamily=Helvetica;fontSize=25;fontColor=#000000;" parent="1" vertex="1">
          <mxGeometry x="311" y="230" width="60" height="60" as="geometry" />
        </mxCell>
        <mxCell id="AtNynxt9UDLsKCmmYmUF-63" style="edgeStyle=orthogonalEdgeStyle;rounded=1;orthogonalLoop=1;jettySize=auto;html=1;labelBackgroundColor=default;fontFamily=Helvetica;fontSize=14;fontColor=#000000;startSize=0;endSize=12;strokeWidth=1;" parent="1" source="AtNynxt9UDLsKCmmYmUF-59" target="AtNynxt9UDLsKCmmYmUF-58" edge="1">
          <mxGeometry relative="1" as="geometry" />
        </mxCell>
        <mxCell id="AtNynxt9UDLsKCmmYmUF-59" value="&lt;font style=&quot;font-size: 14px;&quot;&gt;Disarmed&lt;/font&gt;" style="ellipse;whiteSpace=wrap;html=1;aspect=fixed;labelBackgroundColor=none;fontFamily=Helvetica;fontSize=25;fontColor=#000000;" parent="1" vertex="1">
          <mxGeometry x="223" y="230" width="60" height="60" as="geometry" />
        </mxCell>
        <mxCell id="AtNynxt9UDLsKCmmYmUF-61" style="edgeStyle=orthogonalEdgeStyle;rounded=1;orthogonalLoop=1;jettySize=auto;html=1;entryX=0.5;entryY=1;entryDx=0;entryDy=0;labelBackgroundColor=default;fontFamily=Helvetica;fontSize=14;fontColor=#000000;startSize=0;endSize=12;strokeWidth=1;" parent="1" source="AtNynxt9UDLsKCmmYmUF-60" target="AtNynxt9UDLsKCmmYmUF-59" edge="1">
          <mxGeometry relative="1" as="geometry">
            <Array as="points">
              <mxPoint x="425" y="320" />
              <mxPoint x="253" y="320" />
            </Array>
          </mxGeometry>
        </mxCell>
        <mxCell id="AtNynxt9UDLsKCmmYmUF-60" value="&lt;font style=&quot;font-size: 18px;&quot;&gt;Flying&lt;/font&gt;" style="ellipse;whiteSpace=wrap;html=1;aspect=fixed;labelBackgroundColor=none;fontFamily=Helvetica;fontSize=25;fontColor=#000000;" parent="1" vertex="1">
          <mxGeometry x="395" y="230" width="60" height="60" as="geometry" />
        </mxCell>
        <mxCell id="AtNynxt9UDLsKCmmYmUF-64" style="edgeStyle=orthogonalEdgeStyle;rounded=1;orthogonalLoop=1;jettySize=auto;html=1;labelBackgroundColor=default;fontFamily=Helvetica;fontSize=14;fontColor=#000000;startSize=0;endSize=12;strokeWidth=1;entryX=1;entryY=1;entryDx=0;entryDy=0;" parent="1" source="AtNynxt9UDLsKCmmYmUF-58" target="AtNynxt9UDLsKCmmYmUF-59" edge="1">
          <mxGeometry relative="1" as="geometry">
            <mxPoint x="250" y="300" as="targetPoint" />
            <Array as="points">
              <mxPoint x="341" y="300" />
              <mxPoint x="300" y="300" />
              <mxPoint x="300" y="281" />
            </Array>
          </mxGeometry>
        </mxCell>
        <mxCell id="AtNynxt9UDLsKCmmYmUF-30" value="PoseStamped&lt;br&gt;&lt;font color=&quot;#0000ff&quot;&gt;/pidrone/picamera/pose&lt;/font&gt;" style="edgeStyle=orthogonalEdgeStyle;rounded=1;orthogonalLoop=1;jettySize=auto;html=1;fontFamily=Helvetica;fontSize=25;fontColor=#000000;endSize=20;labelBackgroundColor=none;entryX=0.25;entryY=1;entryDx=0;entryDy=0;" parent="1" source="AtNynxt9UDLsKCmmYmUF-12" target="AtNynxt9UDLsKCmmYmUF-42" edge="1">
          <mxGeometry x="0.1122" relative="1" as="geometry">
            <mxPoint x="910" y="860" as="targetPoint" />
            <Array as="points">
              <mxPoint x="880" y="940" />
              <mxPoint x="596" y="940" />
            </Array>
            <mxPoint x="-1" as="offset" />
          </mxGeometry>
        </mxCell>
        <mxCell id="PVpo5jEVWYjkOMs7Octi-21" style="edgeStyle=orthogonalEdgeStyle;rounded=1;orthogonalLoop=1;jettySize=auto;html=1;exitX=0.104;exitY=1.005;exitDx=0;exitDy=0;exitPerimeter=0;labelBackgroundColor=none;endSize=20;entryX=0.995;entryY=0.892;entryDx=0;entryDy=0;entryPerimeter=0;" edge="1" parent="1" source="PVpo5jEVWYjkOMs7Octi-1" target="AtNynxt9UDLsKCmmYmUF-43">
          <mxGeometry relative="1" as="geometry">
            <mxPoint x="483" y="310" as="targetPoint" />
            <Array as="points">
              <mxPoint x="841" y="313" />
            </Array>
          </mxGeometry>
        </mxCell>
        <mxCell id="PVpo5jEVWYjkOMs7Octi-22" value="&lt;font style=&quot;font-size: 25px;&quot;&gt;RC (R,P,T,Y)&lt;br&gt;&lt;font color=&quot;#0000ff&quot;&gt;/pidrone/fly_commands&lt;/font&gt;&lt;/font&gt;" style="edgeLabel;html=1;align=center;verticalAlign=middle;resizable=0;points=[];labelBackgroundColor=none;" vertex="1" connectable="0" parent="PVpo5jEVWYjkOMs7Octi-21">
          <mxGeometry x="0.2274" y="2" relative="1" as="geometry">
            <mxPoint x="57" y="-4" as="offset" />
          </mxGeometry>
        </mxCell>
        <mxCell id="PVpo5jEVWYjkOMs7Octi-1" value="&lt;font style=&quot;font-size: 25px;&quot;&gt;PID&lt;/font&gt;" style="rounded=1;whiteSpace=wrap;html=1;" vertex="1" parent="1">
          <mxGeometry x="820" y="230" width="200" height="60" as="geometry" />
        </mxCell>
        <mxCell id="PVpo5jEVWYjkOMs7Octi-4" value="&lt;font style=&quot;font-size: 25px;&quot;&gt;WiFi&lt;/font&gt;" style="edgeStyle=orthogonalEdgeStyle;rounded=1;orthogonalLoop=1;jettySize=auto;html=1;entryX=0.75;entryY=0;entryDx=0;entryDy=0;dashed=1;endSize=20;" edge="1" parent="1" source="PVpo5jEVWYjkOMs7Octi-3" target="AtNynxt9UDLsKCmmYmUF-38">
          <mxGeometry relative="1" as="geometry" />
        </mxCell>
        <mxCell id="PVpo5jEVWYjkOMs7Octi-6" style="edgeStyle=orthogonalEdgeStyle;rounded=1;orthogonalLoop=1;jettySize=auto;html=1;endSize=20;exitX=0;exitY=0.5;exitDx=0;exitDy=0;fontSize=25;labelBackgroundColor=none;" edge="1" parent="1" source="AtNynxt9UDLsKCmmYmUF-38">
          <mxGeometry relative="1" as="geometry">
            <mxPoint x="230" y="328" as="targetPoint" />
            <Array as="points">
              <mxPoint x="1020" y="430" />
              <mxPoint x="1020" y="570" />
              <mxPoint x="230" y="570" />
            </Array>
          </mxGeometry>
        </mxCell>
        <mxCell id="PVpo5jEVWYjkOMs7Octi-8" value="&lt;font style=&quot;font-size: 25px;&quot;&gt;Mode&lt;br&gt;&lt;font color=&quot;#0000ff&quot;&gt;/pidrone/desired/mode&lt;/font&gt;&lt;/font&gt;" style="edgeLabel;html=1;align=center;verticalAlign=middle;resizable=0;points=[];labelBackgroundColor=none;" vertex="1" connectable="0" parent="PVpo5jEVWYjkOMs7Octi-6">
          <mxGeometry x="-0.8008" y="2" relative="1" as="geometry">
            <mxPoint x="-3" y="-2" as="offset" />
          </mxGeometry>
        </mxCell>
        <mxCell id="PVpo5jEVWYjkOMs7Octi-3" value="&#xa;&lt;br style=&quot;border-color: var(--border-color); color: rgb(0, 0, 0); font-family: Helvetica; font-size: 25px; font-style: normal; font-variant-ligatures: normal; font-variant-caps: normal; font-weight: 400; letter-spacing: normal; orphans: 2; text-align: center; text-indent: 0px; text-transform: none; widows: 2; word-spacing: 0px; -webkit-text-stroke-width: 0px; background-color: rgb(251, 251, 251); text-decoration-thickness: initial; text-decoration-style: initial; text-decoration-color: initial;&quot;&gt;&lt;span style=&quot;color: rgb(0, 0, 0); font-family: Helvetica; font-size: 25px; font-style: normal; font-variant-ligatures: normal; font-variant-caps: normal; font-weight: 400; letter-spacing: normal; orphans: 2; text-align: center; text-indent: 0px; text-transform: none; widows: 2; word-spacing: 0px; -webkit-text-stroke-width: 0px; background-color: rgb(251, 251, 251); text-decoration-thickness: initial; text-decoration-style: initial; text-decoration-color: initial; float: none; display: inline !important;&quot;&gt;web interface&lt;/span&gt;&#xa;&#xa;" style="ellipse;shape=cloud;whiteSpace=wrap;html=1;" vertex="1" parent="1">
          <mxGeometry x="1380" y="60" width="150" height="110" as="geometry" />
        </mxCell>
        <mxCell id="PVpo5jEVWYjkOMs7Octi-10" style="edgeStyle=orthogonalEdgeStyle;rounded=1;orthogonalLoop=1;jettySize=auto;html=1;fontFamily=Helvetica;fontSize=25;fontColor=#000000;endSize=20;entryX=0.25;entryY=1;entryDx=0;entryDy=0;exitX=1;exitY=0.5;exitDx=0;exitDy=0;" edge="1" parent="1" source="AtNynxt9UDLsKCmmYmUF-41" target="PVpo5jEVWYjkOMs7Octi-1">
          <mxGeometry relative="1" as="geometry">
            <mxPoint x="680" y="830" as="sourcePoint" />
            <Array as="points">
              <mxPoint x="960" y="708" />
              <mxPoint x="960" y="540" />
              <mxPoint x="870" y="540" />
            </Array>
            <mxPoint x="980" y="570" as="targetPoint" />
          </mxGeometry>
        </mxCell>
        <mxCell id="PVpo5jEVWYjkOMs7Octi-14" style="edgeStyle=orthogonalEdgeStyle;rounded=1;orthogonalLoop=1;jettySize=auto;html=1;entryX=0.25;entryY=0;entryDx=0;entryDy=0;endSize=20;exitX=0.25;exitY=0;exitDx=0;exitDy=0;fontSize=25;labelBackgroundColor=none;" edge="1" parent="1" source="AtNynxt9UDLsKCmmYmUF-38" target="PVpo5jEVWYjkOMs7Octi-1">
          <mxGeometry relative="1" as="geometry">
            <mxPoint x="1336" y="499" as="sourcePoint" />
            <mxPoint x="369" y="257" as="targetPoint" />
            <Array as="points">
              <mxPoint x="1355" y="310" />
              <mxPoint x="1071" y="310" />
              <mxPoint x="1071" y="160" />
              <mxPoint x="870" y="160" />
            </Array>
          </mxGeometry>
        </mxCell>
        <mxCell id="PVpo5jEVWYjkOMs7Octi-15" value="&lt;font style=&quot;font-size: 25px;&quot;&gt;Twist&lt;br&gt;&lt;font color=&quot;#0000ff&quot;&gt;/pidrone/desired/twist&lt;/font&gt;&lt;/font&gt;" style="edgeLabel;html=1;align=center;verticalAlign=middle;resizable=0;points=[];labelBackgroundColor=none;" vertex="1" connectable="0" parent="PVpo5jEVWYjkOMs7Octi-14">
          <mxGeometry x="-0.8008" y="2" relative="1" as="geometry">
            <mxPoint x="-143" y="-11" as="offset" />
          </mxGeometry>
        </mxCell>
        <mxCell id="PVpo5jEVWYjkOMs7Octi-16" style="edgeStyle=orthogonalEdgeStyle;rounded=1;orthogonalLoop=1;jettySize=auto;html=1;entryX=0.08;entryY=0.048;entryDx=0;entryDy=0;endSize=20;exitX=0.375;exitY=-0.059;exitDx=0;exitDy=0;fontSize=25;labelBackgroundColor=none;exitPerimeter=0;entryPerimeter=0;" edge="1" parent="1" source="AtNynxt9UDLsKCmmYmUF-38" target="PVpo5jEVWYjkOMs7Octi-1">
          <mxGeometry relative="1" as="geometry">
            <mxPoint x="1365" y="410" as="sourcePoint" />
            <mxPoint x="780" y="238" as="targetPoint" />
            <Array as="points">
              <mxPoint x="1380" y="230" />
              <mxPoint x="1100" y="230" />
              <mxPoint x="1100" y="140" />
              <mxPoint x="836" y="140" />
            </Array>
          </mxGeometry>
        </mxCell>
        <mxCell id="PVpo5jEVWYjkOMs7Octi-17" value="&lt;font style=&quot;font-size: 25px;&quot;&gt;Pose&lt;br&gt;&lt;font color=&quot;#0000ff&quot;&gt;/pidrone/desired/Pose&lt;br&gt;&lt;/font&gt;&lt;/font&gt;" style="edgeLabel;html=1;align=center;verticalAlign=middle;resizable=0;points=[];labelBackgroundColor=none;" vertex="1" connectable="0" parent="PVpo5jEVWYjkOMs7Octi-16">
          <mxGeometry x="-0.8008" y="2" relative="1" as="geometry">
            <mxPoint x="-138" y="-78" as="offset" />
          </mxGeometry>
        </mxCell>
      </root>
    </mxGraphModel>
  </diagram>
</mxfile>
